<svg width="150" height="63" viewBox="0 0 150 63" fill="none" xmlns="http://www.w3.org/2000/svg">
<g clip-path="url(#clip0_2_524)">
<path d="M79.2483 16.1006C79.2483 17.9796 77.886 19.4932 76.1948 19.4932C74.5037 19.4932 73.1414 17.9796 73.1414 16.1006C73.1414 14.2216 74.4567 12.708 76.1948 12.708C77.9329 12.7602 79.2483 14.2738 79.2483 16.1006ZM66.6587 22.938C66.6587 23.2512 66.6587 23.7731 66.6587 23.7731C66.6587 23.7731 65.2025 21.6853 62.1021 21.6853C56.9817 21.6853 52.9888 26.0174 52.9888 32.0197C52.9888 37.9698 56.9347 42.354 62.1021 42.354C65.2495 42.354 66.6587 40.2141 66.6587 40.2141V41.1014C66.6587 41.5189 66.9406 41.8321 67.3164 41.8321H71.1214V22.2073C71.1214 22.2073 67.6452 22.2073 67.3164 22.2073C66.9406 22.2073 66.6587 22.5726 66.6587 22.938ZM66.6587 35.5167C65.9541 36.6649 64.5448 37.6566 62.8537 37.6566C59.8473 37.6566 57.5454 35.5689 57.5454 32.0197C57.5454 28.4705 59.8473 26.3828 62.8537 26.3828C64.4979 26.3828 66.0011 27.4266 66.6587 28.5227V35.5167ZM73.94 22.2073H78.4497V41.8321H73.94V22.2073ZM141.303 21.6853C138.203 21.6853 136.747 23.7731 136.747 23.7731V12.7602H132.237V41.8321C132.237 41.8321 135.713 41.8321 136.042 41.8321C136.418 41.8321 136.7 41.4667 136.7 41.1014V40.2141C136.7 40.2141 138.156 42.354 141.256 42.354C146.377 42.354 150.37 37.9698 150.37 32.0197C150.37 26.0696 146.377 21.6853 141.303 21.6853ZM140.552 37.6044C138.814 37.6044 137.451 36.6127 136.747 35.4645V28.4705C137.451 27.4266 138.955 26.3306 140.552 26.3306C143.558 26.3306 145.86 28.4183 145.86 31.9675C145.86 35.5167 143.558 37.6044 140.552 37.6044ZM129.888 30.1929V41.8843H125.379V30.767C125.379 27.531 124.439 26.2262 121.902 26.2262C120.54 26.2262 119.131 27.0091 118.238 28.1574V41.8321H113.729V22.2073H117.299C117.674 22.2073 117.956 22.5726 117.956 22.938V23.7731C119.272 22.2595 121.01 21.6853 122.748 21.6853C124.721 21.6853 126.365 22.3117 127.68 23.5643C129.278 25.0257 129.888 26.9047 129.888 30.1929ZM102.783 21.6853C99.6827 21.6853 98.2265 23.7731 98.2265 23.7731V12.7602H93.7168V41.8321C93.7168 41.8321 97.193 41.8321 97.5219 41.8321C97.8977 41.8321 98.1795 41.4667 98.1795 41.1014V40.2141C98.1795 40.2141 99.6358 42.354 102.736 42.354C107.857 42.354 111.849 37.9698 111.849 32.0197C111.896 26.0696 107.904 21.6853 102.783 21.6853ZM102.032 37.6044C100.293 37.6044 98.9311 36.6127 98.2265 35.4645V28.4705C98.9311 27.4266 100.434 26.3306 102.032 26.3306C105.038 26.3306 107.34 28.4183 107.34 31.9675C107.34 35.5167 105.038 37.6044 102.032 37.6044ZM89.8178 21.6853C91.1801 21.6853 91.8848 21.9463 91.8848 21.9463V26.5915C91.8848 26.5915 88.1267 25.1823 85.7779 28.1574V41.8843H81.2682V22.2073C81.2682 22.2073 84.7444 22.2073 85.0733 22.2073C85.4491 22.2073 85.7309 22.5726 85.7309 22.938V23.7731C86.5765 22.677 88.4085 21.6853 89.8178 21.6853ZM42.9829 40.0575C42.7481 39.4312 42.5132 38.7527 42.2783 38.1785C41.9025 37.2391 41.5267 36.3518 41.1978 35.5167L41.1509 35.4645C37.9095 27.6354 34.4333 19.702 30.7692 11.8729L30.6283 11.5598C30.2525 10.7769 29.8767 9.94176 29.5009 9.10666C29.0311 8.16718 28.5614 7.1755 27.8097 6.23601C26.3065 4.14826 24.1456 3 21.8438 3C19.495 3 17.3811 4.14826 15.8309 6.13162C15.1263 7.07111 14.6095 8.06279 14.1398 9.00227C13.764 9.83737 13.3882 10.6725 13.0124 11.4554L12.8714 11.7685C9.25429 19.5976 5.7311 27.531 2.48977 35.3601L2.4428 35.4645C2.11397 36.2996 1.73816 37.1869 1.36235 38.1264C1.12747 38.7005 0.892594 39.3268 0.657715 40.0053C0.0470295 41.9365 -0.140874 43.7633 0.0940053 45.6422C0.610739 49.5568 2.95953 52.845 6.20086 54.3064C7.42223 54.8805 8.69058 55.1415 10.0059 55.1415C10.3817 55.1415 10.8515 55.0893 11.2273 55.0371C12.7775 54.8283 14.3747 54.2542 15.9249 53.2625C17.8509 52.0621 19.6829 50.3397 21.7499 47.8344C23.8168 50.3397 25.6958 52.0621 27.5749 53.2625C29.1251 54.2542 30.7222 54.8283 32.2724 55.0371C32.6482 55.0893 33.118 55.1415 33.4938 55.1415C34.8091 55.1415 36.1245 54.8805 37.2989 54.3064C40.5872 52.845 42.889 49.5046 43.4057 45.6422C43.7815 43.8155 43.5936 41.9887 42.9829 40.0575ZM21.7968 42.7716C19.2601 39.2224 17.616 35.882 17.0523 33.0636C16.8174 31.8631 16.7704 30.8192 16.9114 29.8798C17.0053 29.0447 17.2872 28.3139 17.663 27.6876C18.5555 26.2784 20.0587 25.3911 21.7968 25.3911C23.5349 25.3911 25.0851 26.2262 25.9307 27.6876C26.3065 28.3139 26.5884 29.0447 26.6823 29.8798C26.8232 30.8192 26.7763 31.9153 26.5414 33.0636C25.9777 35.8298 24.3335 39.1702 21.7968 42.7716ZM40.5402 45.2247C40.2114 47.9388 38.5672 50.2875 36.2654 51.3314C35.138 51.8533 33.9166 52.0099 32.6952 51.8533C31.5208 51.6967 30.3464 51.2792 29.1251 50.4963C27.4339 49.4524 25.7428 47.8344 23.7698 45.4335C26.8702 41.2058 28.7493 37.3434 29.4539 33.8987C29.7827 32.2807 29.8297 30.8192 29.6888 29.4622C29.5009 28.1574 29.0781 26.9569 28.4204 25.913C26.9642 23.5643 24.5214 22.2073 21.7968 22.2073C19.0722 22.2073 16.6295 23.6165 15.1732 25.913C14.5156 26.9569 14.0928 28.1574 13.9049 29.4622C13.717 30.8192 13.764 32.3329 14.1398 33.8987C14.8444 37.3434 16.7704 41.258 19.8239 45.4857C17.8978 47.8866 16.1597 49.5046 14.4686 50.5485C13.2472 51.3314 12.0728 51.7489 10.8984 51.9055C9.6301 52.0621 8.40873 51.8533 7.32828 51.3835C5.02647 50.3397 3.38231 47.991 3.05348 45.2769C2.91255 43.972 3.00651 42.6672 3.47626 41.2058C3.61719 40.6838 3.85207 40.1619 4.08695 39.5356C4.41578 38.7005 4.79159 37.8132 5.16739 36.9259L5.21437 36.8215C8.4557 29.0447 11.9319 21.1112 15.5491 13.3865L15.69 13.0734C16.0658 12.2905 16.4416 11.4554 16.8174 10.6725C17.1932 9.83737 17.616 9.05447 18.1327 8.37595C19.1192 7.1233 20.4345 6.44478 21.8908 6.44478C23.347 6.44478 24.6624 7.1233 25.6489 8.37595C26.1656 9.05447 26.5884 9.83737 26.9642 10.6725C27.34 11.4554 27.7158 12.2905 28.0916 13.0734L28.2325 13.3865C31.8027 21.1634 35.2789 29.0968 38.5202 36.8737V36.9259C38.896 37.761 39.2249 38.7005 39.6007 39.5356C39.8356 40.1619 40.0704 40.6838 40.2114 41.2058C40.5872 42.5628 40.7281 43.8677 40.5402 45.2247Z" fill="#FF5A5F"/>
</g>
<defs>
<clipPath id="clip0_2_524">
<rect width="150" height="63" fill="white"/>
</clipPath>
</defs>
</svg>
