<svg width="142" height="63" viewBox="0 0 142 63" fill="none" xmlns="http://www.w3.org/2000/svg">
<path fill-rule="evenodd" clip-rule="evenodd" d="M87.8127 53.3188C79.5872 59.3745 67.6648 62.6055 57.3998 62.6055C43.0067 62.6055 30.0492 57.2882 20.2464 48.4447C19.4762 47.7492 20.1663 46.8015 21.0905 47.3431C31.6697 53.4911 44.7504 57.1898 58.2624 57.1898C67.3752 57.1898 77.3998 55.3066 86.6173 51.3987C88.0098 50.8079 89.1743 52.3095 87.8127 53.3188" fill="#FF9900"/>
<path fill-rule="evenodd" clip-rule="evenodd" d="M91.2322 49.4109C90.1848 48.0693 84.2822 48.777 81.6328 49.0909C80.8256 49.1894 80.7024 48.4878 81.4294 47.9832C86.1306 44.6784 93.8447 45.6323 94.7442 46.74C95.6438 47.8539 94.5101 55.5774 90.0924 59.2638C89.4146 59.83 88.7677 59.5284 89.0696 58.7776C90.0616 56.3036 92.2858 50.7587 91.2322 49.4109" fill="#FF9900"/>
<path fill-rule="evenodd" clip-rule="evenodd" d="M81.8176 24.6526V21.4402C81.8176 20.954 82.1873 20.6278 82.6309 20.6278H97.0301C97.4922 20.6278 97.8619 20.9601 97.8619 21.4402V24.1911C97.8558 24.6526 97.4676 25.2558 96.7775 26.2097L89.316 36.8503C92.0887 36.7826 95.0154 37.1949 97.5292 38.6104C98.0961 38.9304 98.2501 39.3981 98.2932 39.8597V43.2875C98.2932 43.7553 97.7757 44.303 97.2335 44.0199C92.8034 41.6998 86.9192 41.4474 82.0209 44.0445C81.5218 44.3153 80.9981 43.7737 80.9981 43.306V40.0504C80.9981 39.5273 81.0043 38.635 81.528 37.8411L90.1725 25.4588H82.6494C82.1873 25.4588 81.8176 25.1327 81.8176 24.6526" fill="black"/>
<path fill-rule="evenodd" clip-rule="evenodd" d="M29.2914 44.6968H24.9106C24.4916 44.666 24.1589 44.3522 24.1281 43.9522V21.4955C24.1281 21.0463 24.5039 20.6893 24.9722 20.6893H29.0572C29.4824 20.7078 29.8212 21.034 29.8521 21.4401V24.3757H29.9322C30.9981 21.5386 33.0005 20.2155 35.6993 20.2155C38.4411 20.2155 40.154 21.5386 41.3863 24.3757C42.446 21.5386 44.8551 20.2155 47.4368 20.2155C49.2729 20.2155 51.2815 20.9724 52.5076 22.671C53.894 24.5603 53.6105 27.3051 53.6105 29.7114L53.6044 43.8845C53.6044 44.3337 53.2285 44.6968 52.7603 44.6968H48.3856C47.9482 44.666 47.597 44.3153 47.597 43.8845V31.9823C47.597 31.0345 47.6832 28.6713 47.4738 27.7728C47.1472 26.265 46.1675 25.8404 44.8983 25.8404C43.8385 25.8404 42.7294 26.5481 42.2797 27.6805C41.8299 28.8129 41.873 30.7083 41.873 31.9823V43.8845C41.873 44.3337 41.4972 44.6968 41.0289 44.6968H36.6543C36.2107 44.666 35.8656 44.3153 35.8656 43.8845L35.8595 31.9823C35.8595 29.4775 36.2723 25.7911 33.1607 25.7911C30.0123 25.7911 30.1355 29.3852 30.1355 31.9823V43.8845C30.1355 44.3337 29.7596 44.6968 29.2914 44.6968" fill="black"/>
<path fill-rule="evenodd" clip-rule="evenodd" d="M110.259 20.2155C116.759 20.2155 120.277 25.7911 120.277 32.8808C120.277 39.7304 116.389 45.1645 110.259 45.1645C103.875 45.1645 100.4 39.5888 100.4 32.6408C100.4 25.6496 103.919 20.2155 110.259 20.2155V20.2155ZM110.296 24.8003C107.067 24.8003 106.864 29.1944 106.864 31.933C106.864 34.6778 106.821 40.5366 110.259 40.5366C113.654 40.5366 113.814 35.8102 113.814 32.93C113.814 31.0345 113.734 28.7698 113.161 26.9728C112.668 25.4096 111.688 24.8003 110.296 24.8003" fill="black"/>
<path fill-rule="evenodd" clip-rule="evenodd" d="M128.706 44.6968H124.344C123.906 44.666 123.555 44.3153 123.555 43.8845L123.549 21.4217C123.586 21.0093 123.949 20.6893 124.393 20.6893H128.453C128.835 20.7078 129.15 20.9663 129.236 21.3171V24.7511H129.316C130.542 21.6802 132.261 20.2155 135.286 20.2155C137.252 20.2155 139.168 20.9232 140.4 22.8618C141.546 24.6588 141.546 27.6805 141.546 29.8529V43.9891C141.497 44.383 141.134 44.6968 140.702 44.6968H136.309C135.909 44.666 135.576 44.3706 135.533 43.9891V31.7915C135.533 29.336 135.816 25.7419 132.791 25.7419C131.725 25.7419 130.745 26.4558 130.259 27.5389C129.643 28.9113 129.562 30.2776 129.562 31.7915V43.8845C129.556 44.3337 129.174 44.6968 128.706 44.6968" fill="black"/>
<path fill-rule="evenodd" clip-rule="evenodd" d="M70.3389 33.97C70.3389 35.6747 70.382 37.0963 69.5194 38.6103C68.8231 39.8411 67.7141 40.5981 66.488 40.5981C64.8059 40.5981 63.8201 39.318 63.8201 37.4287C63.8201 33.6992 67.1657 33.0223 70.3389 33.0223V33.97V33.97ZM74.7566 44.6352C74.467 44.8937 74.048 44.9122 73.7215 44.7399C72.2674 43.5336 72.0024 42.9736 71.2076 41.8228C68.8047 44.2721 67.0979 45.0045 63.9864 45.0045C60.2957 45.0045 57.4307 42.7336 57.4307 38.1856C57.4307 34.6347 59.353 32.2161 62.101 31.0345C64.4793 29.9883 67.8003 29.8036 70.3389 29.5144V28.9482C70.3389 27.9081 70.419 26.6773 69.8028 25.7788C69.2729 24.9726 68.2501 24.6403 67.3444 24.6403C65.6747 24.6403 64.1898 25.4957 63.8262 27.2681C63.7523 27.662 63.4627 28.0497 63.0622 28.0681L58.817 27.6127C58.4596 27.5327 58.0591 27.2435 58.1639 26.6958C59.1374 21.5509 63.7954 20 67.9605 20C70.0924 20 72.8774 20.5662 74.5594 22.1786C76.6913 24.1664 76.488 26.8188 76.488 29.7052V36.524C76.488 38.5734 77.3382 39.4719 78.1392 40.5796C78.4165 40.9735 78.4781 41.4474 78.1207 41.7428C77.2273 42.4874 75.6377 43.8721 74.7627 44.6475L74.7566 44.6352" fill="black"/>
<path fill-rule="evenodd" clip-rule="evenodd" d="M12.9082 33.97C12.9082 35.6747 12.9513 37.0963 12.0887 38.6103C11.3925 39.8411 10.2896 40.5981 9.0573 40.5981C7.37523 40.5981 6.39556 39.318 6.39556 37.4287C6.39556 33.6992 9.74122 33.0223 12.9082 33.0223V33.97V33.97ZM17.3259 44.6352C17.0364 44.8937 16.6174 44.9122 16.2908 44.7399C14.8367 43.5336 14.5779 42.9736 13.777 41.8228C11.374 44.2721 9.67345 45.0045 6.55576 45.0045C2.87122 45.0045 0 42.7336 0 38.1856C0 34.6347 1.92853 32.2161 4.67036 31.0345C7.04867 29.9883 10.3697 29.8036 12.9082 29.5144V28.9482C12.9082 27.9081 12.9883 26.6773 12.3783 25.7788C11.8423 24.9726 10.8195 24.6403 9.9199 24.6403C8.25016 24.6403 6.75909 25.4957 6.39556 27.2681C6.32162 27.662 6.03204 28.0497 5.63771 28.0681L1.38632 27.6127C1.02896 27.5327 0.634626 27.2435 0.733209 26.6958C1.71288 21.5509 6.36475 20 10.5299 20C12.6617 20 15.4467 20.5662 17.1288 22.1786C19.2606 24.1664 19.0573 26.8188 19.0573 29.7052V36.524C19.0573 38.5734 19.9076 39.4719 20.7086 40.5796C20.992 40.9735 21.0536 41.4474 20.6962 41.7428C19.8028 42.4874 18.2132 43.8721 17.3383 44.6475L17.3259 44.6352" fill="black"/>
</svg>
