<svg width="150" height="63" viewBox="0 0 150 63" fill="none" xmlns="http://www.w3.org/2000/svg">
<g clip-path="url(#clip0_2_526)">
<path d="M145.796 35.1766L149.97 37.9596C148.616 39.9553 145.375 43.3792 139.772 43.3792C132.815 43.3792 127.633 37.9963 127.633 31.1486C127.633 23.8615 132.87 18.918 139.186 18.918C145.54 18.918 148.652 23.9713 149.659 26.6994L150.208 28.0909L133.84 34.8654C135.085 37.3188 137.026 38.5638 139.772 38.5638C142.519 38.5638 144.423 37.209 145.796 35.1766ZM132.961 30.7641L143.892 26.2234C143.288 24.7037 141.493 23.6235 139.351 23.6235C136.623 23.6235 132.833 26.0403 132.961 30.7641Z" fill="#FF302F"/>
<path d="M119.742 6.44934H125.015V42.2623H119.742V6.44934Z" fill="#20B15A"/>
<path d="M111.429 19.8701H116.519V41.6215C116.519 50.648 111.191 54.3648 104.893 54.3648C98.9607 54.3648 95.3904 50.3733 94.0538 47.1326L98.7227 45.1918C99.5649 47.1875 101.597 49.5494 104.893 49.5494C108.939 49.5494 111.429 47.041 111.429 42.3539V40.5962H111.246C110.038 42.0609 107.731 43.3792 104.801 43.3792C98.6861 43.3792 93.0835 38.0512 93.0835 31.1852C93.0835 24.2826 98.6861 18.8997 104.801 18.8997C107.713 18.8997 110.038 20.1996 111.246 21.6277H111.429V19.8701ZM111.796 31.1852C111.796 26.8642 108.921 23.715 105.259 23.715C101.561 23.715 98.4481 26.8642 98.4481 31.1852C98.4481 35.4513 101.561 38.5455 105.259 38.5455C108.921 38.5638 111.796 35.4513 111.796 31.1852Z" fill="#3686F7"/>
<path d="M64.1365 31.0936C64.1365 38.1427 58.6437 43.3243 51.9059 43.3243C45.168 43.3243 39.6752 38.1244 39.6752 31.0936C39.6752 24.0079 45.168 18.8447 51.9059 18.8447C58.6437 18.8447 64.1365 24.0079 64.1365 31.0936ZM58.7902 31.0936C58.7902 26.6994 55.6043 23.6784 51.9059 23.6784C48.2074 23.6784 45.0216 26.6994 45.0216 31.0936C45.0216 35.4513 48.2074 38.5089 51.9059 38.5089C55.6043 38.5089 58.7902 35.4513 58.7902 31.0936Z" fill="#FF302F"/>
<path d="M90.8497 31.1486C90.8497 38.1977 85.3569 43.3792 78.6191 43.3792C71.8813 43.3792 66.3885 38.1977 66.3885 31.1486C66.3885 24.0629 71.8813 18.918 78.6191 18.918C85.3569 18.918 90.8497 24.0446 90.8497 31.1486ZM85.4851 31.1486C85.4851 26.7543 82.2993 23.7333 78.6008 23.7333C74.9023 23.7333 71.7165 26.7543 71.7165 31.1486C71.7165 35.5062 74.9023 38.5638 78.6008 38.5638C82.3176 38.5638 85.4851 35.4879 85.4851 31.1486Z" fill="#FFBA40"/>
<path d="M19.5716 38.0146C11.9 38.0146 5.8946 31.8261 5.8946 24.1545C5.8946 16.4829 11.9 10.2943 19.5716 10.2943C23.7095 10.2943 26.7306 11.9238 28.9643 14.0111L32.6445 10.3309C29.5319 7.34652 25.3757 5.07617 19.5716 5.07617C9.06211 5.07617 0.218719 13.6449 0.218719 24.1545C0.218719 34.664 9.06211 43.2327 19.5716 43.2327C25.2475 43.2327 29.5319 41.3652 32.8825 37.8864C36.3246 34.4443 37.3866 29.6106 37.3866 25.6924C37.3866 24.4657 37.2401 23.2024 37.0753 22.2686H19.5716V27.3586H32.0403C31.6741 30.5444 30.6671 32.7232 29.184 34.2063C27.3897 36.0189 24.5518 38.0146 19.5716 38.0146Z" fill="#3686F7"/>
</g>
<defs>
<clipPath id="clip0_2_526">
<rect width="150" height="63" fill="white"/>
</clipPath>
</defs>
</svg>
