<svg width="150" height="63" viewBox="0 0 150 63" fill="none" xmlns="http://www.w3.org/2000/svg">
<g clip-path="url(#clip0_2_520)">
<path d="M69.7079 26.1667C67.4788 26.1667 65.8977 28.1127 65.8977 31.0999V42.0574H62.495V22.7703H65.857V25.1255C66.2716 24.3449 66.8659 23.7023 67.5781 23.2642C68.2903 22.8261 69.0946 22.6085 69.9076 22.6339H71.1301V26.1667H69.7079ZM60.1437 32.4139C60.1437 26.6623 56.4762 22.3611 51.5128 22.3611C50.34 22.37 49.1804 22.6375 48.1007 23.1483C47.021 23.659 46.0424 24.403 45.2214 25.3372C44.4003 26.2715 43.7529 27.3777 43.3164 28.5922C42.8799 29.8067 42.663 31.1055 42.678 32.4139C42.678 38.1609 46.6512 42.5075 51.8347 42.5075C53.2826 42.538 54.7159 42.1797 56.0137 41.4628C57.3116 40.7459 58.4359 39.6914 59.292 38.3882L56.8226 36.3695C56.256 37.2517 55.5063 37.9678 54.6377 38.4563C53.7691 38.9448 52.8073 39.1914 51.8347 39.1748C50.4494 39.1675 49.1123 38.6067 48.0657 37.5942C47.0191 36.5816 46.3322 35.1841 46.1296 33.6551H60.1519L60.1437 32.4139ZM46.203 30.6452C46.8101 27.7035 48.9169 25.712 51.472 25.712C54.0271 25.712 56.1298 27.7035 56.7003 30.6452H46.203ZM31.8995 22.3611C30.7624 22.3622 29.6367 22.6147 28.5875 23.104C27.5383 23.5933 26.5865 24.3097 25.7869 25.2119V15.5684H22.3842V42.0574H25.7462V39.6113C27.3748 41.4496 29.591 42.4913 31.9076 42.5075C33.1094 42.536 34.3042 42.2965 35.4219 41.8031C36.5396 41.3097 37.5578 40.5722 38.4167 39.634C39.2756 38.6958 39.958 37.5757 40.4239 36.3394C40.8898 35.1031 41.1298 33.7755 41.1298 32.4343C41.1298 31.0932 40.8898 29.7655 40.4239 28.5292C39.958 27.2929 39.2756 26.1728 38.4167 25.2346C37.5578 24.2964 36.5396 23.559 35.4219 23.0655C34.3042 22.5721 33.1094 22.3326 31.9076 22.3611H31.8995ZM31.655 39.1157C30.469 39.122 29.308 38.7351 28.3194 38.004C27.3307 37.2729 26.559 36.2306 26.1022 35.0094C25.6453 33.7882 25.5239 32.4431 25.7533 31.1448C25.9827 29.8465 26.5526 28.6534 27.3907 27.7171C28.2288 26.7807 29.2973 26.1432 30.4606 25.8855C31.6239 25.6277 32.8297 25.7614 33.9248 26.2695C35.02 26.7775 35.9552 27.6371 36.6118 28.7392C37.2684 29.8412 37.6168 31.136 37.6127 32.4593C37.6138 33.3322 37.4604 34.1967 37.1613 35.0032C36.8621 35.8097 36.4232 36.5424 35.8697 37.1591C35.3161 37.7759 34.6588 38.2646 33.9356 38.5973C33.2123 38.9299 32.4373 39.0999 31.655 39.0975V39.1157ZM9.85344 38.9338C13.1379 38.9338 15.6889 36.124 15.6889 31.9137V15.5684H19.2138V42.0574H15.7297V39.5522C14.9156 40.4908 13.9394 41.2355 12.8601 41.7411C11.7807 42.2468 10.6206 42.5028 9.45001 42.4939C4.38471 42.4939 0.484879 38.3746 0.484879 32.1274V15.5684H4.07501V31.9365C4.07501 36.1694 6.52004 38.9338 9.85344 38.9338V38.9338Z" fill="#262626"/>
<path d="M79.594 15.5684H96.2487V20.1151H84.0928V26.5714H95.9105V30.9635H84.0928V37.5289H96.2487V42.0756H79.594V15.5684ZM142.244 42.553C147.35 42.553 150.227 39.825 150.227 36.0785C150.227 33.4096 148.524 31.4181 144.958 30.5543L141.188 29.6949C139 29.2403 138.311 28.7856 138.311 27.8763C138.311 26.6987 139.367 25.9757 141.311 25.9757C143.417 25.9757 144.978 26.6077 145.386 28.7811H149.803C149.563 24.689 146.926 21.9883 141.58 21.9883C136.959 21.9883 133.715 24.1161 133.715 28.24C133.715 31.0908 135.5 32.9458 139.351 33.8506L143.564 34.9373C145.227 35.301 145.671 35.8012 145.671 36.5695C145.671 37.7926 144.416 38.561 142.387 38.561C139.836 38.561 138.377 37.929 137.81 35.7557H133.368C134.016 39.8386 136.73 42.553 142.244 42.553ZM132.085 42.0574H127.305C124.305 42.0574 122.643 39.975 122.643 37.347V26.9351H119.281V22.4975H122.659V16.9278H127.101V22.4975H132.085V26.9351H127.101V36.0785C127.101 37.1197 127.749 37.6198 128.764 37.6198H132.085V42.0574ZM112.932 22.5066V24.2707C111.368 22.7957 109.385 21.9899 107.337 21.9974C106.111 21.9686 104.892 22.2132 103.752 22.7168C102.612 23.2204 101.573 23.9728 100.697 24.93C99.8208 25.8873 99.1247 27.03 98.6495 28.2913C98.1743 29.5526 97.9295 30.907 97.9295 32.2752C97.9295 33.6434 98.1743 34.9978 98.6495 36.2591C99.1247 37.5204 99.8208 38.6631 100.697 39.6203C101.573 40.5776 102.612 41.33 103.752 41.8336C104.892 42.3372 106.111 42.5818 107.337 42.553C109.385 42.5629 111.369 41.7568 112.932 40.2796V42.0483H117.362V22.4975L112.932 22.5066ZM107.704 38.2609C106.641 38.2744 105.599 37.9352 104.71 37.2863C103.82 36.6374 103.124 35.7081 102.709 34.6166C102.294 33.5251 102.18 32.3207 102.38 31.1563C102.58 29.9919 103.086 28.9202 103.833 28.0774C104.581 27.2346 105.536 26.6587 106.577 26.4229C107.618 26.1871 108.699 26.3021 109.682 26.7533C110.664 27.2044 111.505 27.9714 112.096 28.9566C112.687 29.9419 113.002 31.101 113.001 32.2866C113.008 33.0681 112.875 33.8433 112.611 34.5674C112.348 35.2914 111.958 35.9498 111.464 36.5046C110.971 37.0594 110.384 37.4995 109.737 37.7994C109.09 38.0993 108.396 38.2531 107.696 38.2518L107.704 38.2609Z" fill="#5FB709"/>
</g>
<defs>
<clipPath id="clip0_2_520">
<rect width="150" height="63" fill="white"/>
</clipPath>
</defs>
</svg>
